<svg data-v-423bf9ae="" xmlns="http://www.w3.org/2000/svg" viewBox="0 0 479.3567215912418 60" class="font"><!----><!----><!----><g data-v-423bf9ae="" id="400f0e0b-5f00-4260-915f-87d1d9f51652" fill="white" transform="matrix(5.847953085917131,0,0,5.847953085917131,-3.4502896306689763,-29.707600276621292)"><path d="M7.92 14.01L7.92 14.01Q8.16 14.36 8.45 14.57L8.45 14.57L8.45 14.57Q8.74 14.77 9.16 14.87L9.16 14.87L9.16 15.15L9.16 15.15Q8.48 15.11 7.48 15.11L7.48 15.11L7.48 15.11Q6.72 15.11 6.03 15.15L6.03 15.15L6.03 14.87L6.03 14.87Q6.37 14.85 6.52 14.78L6.52 14.78L6.52 14.78Q6.68 14.71 6.68 14.57L6.68 14.57L6.68 14.57Q6.68 14.43 6.54 14.24L6.54 14.24L4.49 11.16L4.49 11.16Q4.09 10.54 3.81 10.35L3.81 10.35L3.81 10.35Q3.53 10.16 3.02 10.14L3.02 10.14L3.02 13.66L3.02 13.66Q3.02 14.20 3.11 14.43L3.11 14.43L3.11 14.43Q3.19 14.67 3.42 14.76L3.42 14.76L3.42 14.76Q3.65 14.84 4.16 14.87L4.16 14.87L4.16 15.15L4.16 15.15Q3.51 15.11 2.38 15.11L2.38 15.11L2.38 15.11Q1.18 15.11 0.59 15.15L0.59 15.15L0.59 14.87L0.59 14.87Q1.09 14.84 1.32 14.76L1.32 14.76L1.32 14.76Q1.55 14.67 1.64 14.43L1.64 14.43L1.64 14.43Q1.72 14.20 1.72 13.66L1.72 13.66L1.72 6.72L1.72 6.72Q1.72 6.19 1.64 5.95L1.64 5.95L1.64 5.95Q1.55 5.71 1.32 5.63L1.32 5.63L1.32 5.63Q1.09 5.54 0.59 5.52L0.59 5.52L0.59 5.24L0.59 5.24Q1.18 5.28 2.38 5.28L2.38 5.28L2.38 5.28Q3.50 5.28 4.16 5.24L4.16 5.24L4.16 5.52L4.16 5.52Q3.65 5.54 3.42 5.63L3.42 5.63L3.42 5.63Q3.19 5.71 3.11 5.95L3.11 5.95L3.11 5.95Q3.02 6.19 3.02 6.72L3.02 6.72L3.02 9.86L3.02 9.86Q4.05 9.81 4.62 9.07L4.62 9.07L5.96 7.36L5.96 7.36Q6.68 6.48 6.68 6.02L6.68 6.02L6.68 6.02Q6.68 5.53 5.81 5.52L5.81 5.52L5.81 5.24L5.81 5.24Q6.61 5.28 7.42 5.28L7.42 5.28L7.42 5.28Q8.19 5.28 8.61 5.24L8.61 5.24L8.61 5.52L8.61 5.52Q8.15 5.59 7.74 5.82L7.74 5.82L7.74 5.82Q7.34 6.05 6.96 6.54L6.96 6.54L4.68 9.46L7.92 14.01ZM12.75 5.08L12.75 5.08Q13.37 5.08 13.73 5.21L13.73 5.21L13.73 5.21Q14.08 5.35 14.46 5.60L14.46 5.60L14.46 5.60Q14.77 5.80 14.94 5.80L14.94 5.80L14.94 5.80Q15.06 5.80 15.13 5.65L15.13 5.65L15.13 5.65Q15.20 5.50 15.25 5.18L15.25 5.18L15.57 5.18L15.57 5.18Q15.50 5.99 15.50 8.04L15.50 8.04L15.18 8.04L15.18 8.04Q15.09 6.90 14.53 6.13L14.53 6.13L14.53 6.13Q13.96 5.35 12.88 5.35L12.88 5.35L12.88 5.35Q12.12 5.35 11.65 5.80L11.65 5.80L11.65 5.80Q11.17 6.26 11.17 6.97L11.17 6.97L11.17 6.97Q11.17 7.50 11.42 7.90L11.42 7.90L11.42 7.90Q11.66 8.29 12.04 8.57L12.04 8.57L12.04 8.57Q12.42 8.85 13.12 9.28L13.12 9.28L13.52 9.53L13.52 9.53Q14.41 10.08 14.92 10.49L14.92 10.49L14.92 10.49Q15.43 10.91 15.74 11.44L15.74 11.44L15.74 11.44Q16.04 11.97 16.04 12.68L16.04 12.68L16.04 12.68Q16.04 13.96 15.20 14.65L15.20 14.65L15.20 14.65Q14.36 15.34 13.08 15.34L13.08 15.34L13.08 15.34Q12.40 15.34 11.98 15.20L11.98 15.20L11.98 15.20Q11.55 15.06 11.16 14.83L11.16 14.83L11.16 14.83Q10.85 14.63 10.68 14.63L10.68 14.63L10.68 14.63Q10.56 14.63 10.49 14.78L10.49 14.78L10.49 14.78Q10.42 14.92 10.37 15.25L10.37 15.25L10.05 15.25L10.05 15.25Q10.11 14.48 10.11 11.89L10.11 11.89L10.43 11.89L10.43 11.89Q10.53 13.30 11.13 14.18L11.13 14.18L11.13 14.18Q11.73 15.06 12.98 15.06L12.98 15.06L12.98 15.06Q13.73 15.06 14.27 14.59L14.27 14.59L14.27 14.59Q14.80 14.13 14.80 13.20L14.80 13.20L14.80 13.20Q14.80 12.42 14.27 11.87L14.27 11.87L14.27 11.87Q13.75 11.33 12.61 10.64L12.61 10.64L12.61 10.64Q11.79 10.14 11.28 9.74L11.28 9.74L11.28 9.74Q10.77 9.35 10.44 8.80L10.44 8.80L10.44 8.80Q10.12 8.25 10.12 7.50L10.12 7.50L10.12 7.50Q10.12 6.33 10.88 5.71L10.88 5.71L10.88 5.71Q11.63 5.08 12.75 5.08L12.75 5.08ZM24.37 5.24L24.37 5.52L24.37 5.52Q23.87 5.54 23.64 5.63L23.64 5.63L23.64 5.63Q23.41 5.71 23.32 5.95L23.32 5.95L23.32 5.95Q23.24 6.19 23.24 6.72L23.24 6.72L23.24 13.66L23.24 13.66Q23.24 14.20 23.32 14.43L23.32 14.43L23.32 14.43Q23.41 14.67 23.64 14.76L23.64 14.76L23.64 14.76Q23.87 14.84 24.37 14.87L24.37 14.87L24.37 15.15L24.37 15.15Q23.73 15.11 22.60 15.11L22.60 15.11L22.60 15.11Q21.39 15.11 20.80 15.15L20.80 15.15L20.80 14.87L20.80 14.87Q21.31 14.84 21.54 14.76L21.54 14.76L21.54 14.76Q21.77 14.67 21.85 14.43L21.85 14.43L21.85 14.43Q21.94 14.20 21.94 13.66L21.94 13.66L21.94 6.72L21.94 6.72Q21.94 6.19 21.85 5.95L21.85 5.95L21.85 5.95Q21.77 5.71 21.54 5.63L21.54 5.63L21.54 5.63Q21.31 5.54 20.80 5.52L20.80 5.52L20.80 5.24L20.80 5.24Q21.39 5.28 22.60 5.28L22.60 5.28L22.60 5.28Q23.72 5.28 24.37 5.24L24.37 5.24ZM30.07 7.74L30.07 7.74Q31.05 7.74 31.56 8.27L31.56 8.27L31.56 8.27Q31.82 8.55 31.93 8.97L31.93 8.97L31.93 8.97Q32.05 9.39 32.05 10.11L32.05 10.11L32.05 13.85L32.05 13.85Q32.05 14.42 32.28 14.64L32.28 14.64L32.28 14.64Q32.52 14.85 33.11 14.85L33.11 14.85L33.11 15.15L33.11 15.15Q31.82 15.09 31.43 15.09L31.43 15.09L31.43 15.09Q31.04 15.09 29.86 15.15L29.86 15.15L29.86 14.85L29.86 14.85Q30.38 14.85 30.58 14.64L30.58 14.64L30.58 14.64Q30.79 14.42 30.79 13.85L30.79 13.85L30.79 9.80L30.79 9.80Q30.79 9.02 30.56 8.60L30.56 8.60L30.56 8.60Q30.34 8.19 29.65 8.19L29.65 8.19L29.65 8.19Q29.08 8.19 28.63 8.53L28.63 8.53L28.63 8.53Q28.18 8.86 27.94 9.44L27.94 9.44L27.94 9.44Q27.69 10.02 27.69 10.74L27.69 10.74L27.69 13.85L27.69 13.85Q27.69 14.42 27.90 14.64L27.90 14.64L27.90 14.64Q28.10 14.85 28.62 14.85L28.62 14.85L28.62 15.15L28.62 15.15Q27.44 15.09 27.05 15.09L27.05 15.09L27.05 15.09Q26.66 15.09 25.37 15.15L25.37 15.15L25.37 14.85L25.37 14.85Q25.96 14.85 26.19 14.64L26.19 14.64L26.19 14.64Q26.43 14.42 26.43 13.85L26.43 13.85L26.43 9.46L26.43 9.46Q26.43 8.82 26.19 8.53L26.19 8.53L26.19 8.53Q25.96 8.23 25.37 8.23L25.37 8.23L25.37 7.94L25.37 7.94Q25.82 7.98 26.24 7.98L26.24 7.98L26.24 7.98Q27.12 7.98 27.69 7.78L27.69 7.78L27.69 9.44L27.69 9.44Q28.04 8.54 28.67 8.14L28.67 8.14L28.67 8.14Q29.29 7.74 30.07 7.74L30.07 7.74ZM36.23 7.74L36.23 7.74Q36.74 7.74 37.13 7.90L37.13 7.90L37.13 7.90Q37.52 8.05 37.76 8.26L37.76 8.26L37.76 8.26Q37.91 8.37 38.01 8.37L38.01 8.37L38.01 8.37Q38.26 8.37 38.32 7.76L38.32 7.76L38.64 7.76L38.64 7.76Q38.58 8.44 38.58 10.14L38.58 10.14L38.26 10.14L38.26 10.14Q38.11 9.21 37.67 8.61L37.67 8.61L37.67 8.61Q37.23 8.01 36.36 8.01L36.36 8.01L36.36 8.01Q35.85 8.01 35.53 8.29L35.53 8.29L35.53 8.29Q35.21 8.58 35.21 9.09L35.21 9.09L35.21 9.09Q35.21 9.58 35.55 9.90L35.55 9.90L35.55 9.90Q35.88 10.23 36.62 10.70L36.62 10.70L36.62 10.70Q36.75 10.77 37.00 10.93L37.00 10.93L37.00 10.93Q37.65 11.35 38.04 11.68L38.04 11.68L38.04 11.68Q38.43 12.00 38.68 12.42L38.68 12.42L38.68 12.42Q38.92 12.84 38.92 13.38L38.92 13.38L38.92 13.38Q38.92 14.31 38.23 14.83L38.23 14.83L38.23 14.83Q37.53 15.34 36.53 15.34L36.53 15.34L36.53 15.34Q35.90 15.34 35.42 15.15L35.42 15.15L35.42 15.15Q35.11 14.99 34.85 14.77L34.85 14.77L34.85 14.77Q34.79 14.71 34.72 14.71L34.72 14.71L34.72 14.71Q34.62 14.71 34.55 14.85L34.55 14.85L34.55 14.85Q34.47 14.99 34.43 15.25L34.43 15.25L34.10 15.25L34.10 15.25Q34.16 14.45 34.16 12.45L34.16 12.45L34.48 12.45L34.48 12.45Q34.64 13.76 35.04 14.41L35.04 14.41L35.04 14.41Q35.45 15.06 36.43 15.06L36.43 15.06L36.43 15.06Q36.92 15.06 37.30 14.74L37.30 14.74L37.30 14.74Q37.67 14.42 37.67 13.73L37.67 13.73L37.67 13.73Q37.67 13.19 37.30 12.81L37.30 12.81L37.30 12.81Q36.93 12.43 36.09 11.90L36.09 11.90L36.09 11.90Q35.41 11.47 35.04 11.19L35.04 11.19L35.04 11.19Q34.66 10.91 34.41 10.50L34.41 10.50L34.41 10.50Q34.16 10.09 34.16 9.55L34.16 9.55L34.16 9.55Q34.16 8.67 34.75 8.20L34.75 8.20L34.75 8.20Q35.34 7.74 36.23 7.74L36.23 7.74ZM46.34 7.78L46.34 13.64L46.34 13.64Q46.34 14.28 46.58 14.57L46.58 14.57L46.58 14.57Q46.82 14.87 47.40 14.87L47.40 14.87L47.40 15.16L47.40 15.16Q46.97 15.12 46.54 15.12L46.54 15.12L46.54 15.12Q45.65 15.12 45.08 15.32L45.08 15.32L45.08 13.66L45.08 13.66Q44.74 14.53 44.13 14.94L44.13 14.94L44.13 14.94Q43.51 15.34 42.78 15.34L42.78 15.34L42.78 15.34Q41.83 15.34 41.33 14.81L41.33 14.81L41.33 14.81Q41.08 14.53 40.97 14.10L40.97 14.10L40.97 14.10Q40.87 13.66 40.87 12.98L40.87 12.98L40.87 9.46L40.87 9.46Q40.87 8.82 40.63 8.53L40.63 8.53L40.63 8.53Q40.39 8.23 39.80 8.23L39.80 8.23L39.80 7.94L39.80 7.94Q40.24 7.98 40.67 7.98L40.67 7.98L40.67 7.98Q41.55 7.98 42.13 7.78L42.13 7.78L42.13 13.29L42.13 13.29Q42.13 13.82 42.19 14.15L42.19 14.15L42.19 14.15Q42.25 14.48 42.48 14.69L42.48 14.69L42.48 14.69Q42.71 14.90 43.19 14.90L43.19 14.90L43.19 14.90Q43.72 14.90 44.16 14.56L44.16 14.56L44.16 14.56Q44.59 14.22 44.84 13.64L44.84 13.64L44.84 13.64Q45.08 13.06 45.08 12.36L45.08 12.36L45.08 9.46L45.08 9.46Q45.08 8.82 44.84 8.53L44.84 8.53L44.84 8.53Q44.60 8.23 44.02 8.23L44.02 8.23L44.02 7.94L44.02 7.94Q44.45 7.98 44.88 7.98L44.88 7.98L44.88 7.98Q45.77 7.98 46.34 7.78L46.34 7.78ZM52.47 7.74L52.47 7.74Q53.03 7.74 53.39 8.06L53.39 8.06L53.39 8.06Q53.75 8.39 53.75 8.85L53.75 8.85L53.75 8.85Q53.75 9.21 53.53 9.47L53.53 9.47L53.53 9.47Q53.31 9.73 52.95 9.73L52.95 9.73L52.95 9.73Q52.64 9.73 52.42 9.53L52.42 9.53L52.42 9.53Q52.21 9.34 52.21 9.00L52.21 9.00L52.21 9.00Q52.21 8.54 52.68 8.25L52.68 8.25L52.68 8.25Q52.58 8.11 52.39 8.11L52.39 8.11L52.39 8.11Q51.84 8.11 51.39 8.53L51.39 8.53L51.39 8.53Q50.95 8.96 50.69 9.58L50.69 9.58L50.69 9.58Q50.44 10.19 50.44 10.74L50.44 10.74L50.44 13.71L50.44 13.71Q50.44 14.35 50.81 14.60L50.81 14.60L50.81 14.60Q51.18 14.85 51.93 14.85L51.93 14.85L51.93 15.15L51.59 15.13L51.59 15.13Q50.16 15.09 49.77 15.09L49.77 15.09L49.77 15.09Q49.41 15.09 48.12 15.15L48.12 15.15L48.12 14.85L48.12 14.85Q48.71 14.85 48.94 14.64L48.94 14.64L48.94 14.64Q49.18 14.42 49.18 13.85L49.18 13.85L49.18 9.46L49.18 9.46Q49.18 8.82 48.94 8.53L48.94 8.53L48.94 8.53Q48.71 8.23 48.12 8.23L48.12 8.23L48.12 7.94L48.12 7.94Q48.57 7.98 48.99 7.98L48.99 7.98L48.99 7.98Q49.87 7.98 50.44 7.78L50.44 7.78L50.44 9.53L50.44 9.53Q50.69 8.83 51.25 8.29L51.25 8.29L51.25 8.29Q51.80 7.74 52.47 7.74L52.47 7.74ZM56.22 15.25L56.22 15.25Q55.34 15.25 54.92 14.80L54.92 14.80L54.92 14.80Q54.49 14.36 54.49 13.58L54.49 13.58L54.49 13.58Q54.49 12.95 54.83 12.54L54.83 12.54L54.83 12.54Q55.17 12.14 55.64 11.90L55.64 11.90L55.64 11.90Q56.11 11.66 56.88 11.40L56.88 11.40L56.88 11.40Q57.67 11.13 58.04 10.91L58.04 10.91L58.04 10.91Q58.42 10.68 58.42 10.30L58.42 10.30L58.42 9.44L58.42 9.44Q58.42 8.62 58.08 8.32L58.08 8.32L58.08 8.32Q57.74 8.02 57.12 8.02L57.12 8.02L57.12 8.02Q56.14 8.02 55.73 8.53L55.73 8.53L55.73 8.53Q56.01 8.60 56.20 8.82L56.20 8.82L56.20 8.82Q56.39 9.04 56.39 9.38L56.39 9.38L56.39 9.38Q56.39 9.73 56.17 9.93L56.17 9.93L56.17 9.93Q55.94 10.14 55.59 10.14L55.59 10.14L55.59 10.14Q55.20 10.14 55.01 9.89L55.01 9.89L55.01 9.89Q54.81 9.65 54.81 9.30L54.81 9.30L54.81 9.30Q54.81 8.96 54.97 8.74L54.97 8.74L54.97 8.74Q55.13 8.51 55.45 8.29L55.45 8.29L55.45 8.29Q55.79 8.05 56.31 7.90L56.31 7.90L56.31 7.90Q56.83 7.74 57.44 7.74L57.44 7.74L57.44 7.74Q58.53 7.74 59.09 8.26L59.09 8.26L59.09 8.26Q59.44 8.58 59.56 9.04L59.56 9.04L59.56 9.04Q59.68 9.49 59.68 10.23L59.68 10.23L59.68 14.13L59.68 14.13Q59.68 14.48 59.78 14.63L59.78 14.63L59.78 14.63Q59.88 14.78 60.12 14.78L60.12 14.78L60.12 14.78Q60.28 14.78 60.43 14.71L60.43 14.71L60.43 14.71Q60.58 14.63 60.75 14.49L60.75 14.49L60.90 14.73L60.90 14.73Q60.54 15.01 60.28 15.13L60.28 15.13L60.28 15.13Q60.02 15.25 59.63 15.25L59.63 15.25L59.63 15.25Q58.95 15.25 58.69 14.91L58.69 14.91L58.69 14.91Q58.42 14.57 58.42 14L58.42 14L58.42 14Q58.00 14.70 57.46 14.97L57.46 14.97L57.46 14.97Q56.91 15.25 56.22 15.25L56.22 15.25ZM56.84 14.69L56.84 14.69Q57.76 14.69 58.42 13.62L58.42 13.62L58.42 10.88L58.42 10.88Q58.30 11.07 58.07 11.20L58.07 11.20L58.07 11.20Q57.85 11.33 57.39 11.54L57.39 11.54L57.39 11.54Q56.85 11.76 56.53 11.96L56.53 11.96L56.53 11.96Q56.20 12.17 55.96 12.52L55.96 12.52L55.96 12.52Q55.72 12.87 55.72 13.41L55.72 13.41L55.72 13.41Q55.72 14.04 56.03 14.36L56.03 14.36L56.03 14.36Q56.34 14.69 56.84 14.69L56.84 14.69ZM66.02 7.74L66.02 7.74Q67.00 7.74 67.51 8.27L67.51 8.27L67.51 8.27Q67.77 8.55 67.89 8.97L67.89 8.97L67.89 8.97Q68.00 9.39 68.00 10.11L68.00 10.11L68.00 13.85L68.00 13.85Q68.00 14.42 68.24 14.64L68.24 14.64L68.24 14.64Q68.47 14.85 69.06 14.85L69.06 14.85L69.06 15.15L69.06 15.15Q67.77 15.09 67.38 15.09L67.38 15.09L67.38 15.09Q66.99 15.09 65.81 15.15L65.81 15.15L65.81 14.85L65.81 14.85Q66.33 14.85 66.54 14.64L66.54 14.64L66.54 14.64Q66.74 14.42 66.74 13.85L66.74 13.85L66.74 9.80L66.74 9.80Q66.74 9.02 66.51 8.60L66.51 8.60L66.51 8.60Q66.29 8.19 65.60 8.19L65.60 8.19L65.60 8.19Q65.03 8.19 64.58 8.53L64.58 8.53L64.58 8.53Q64.13 8.86 63.89 9.44L63.89 9.44L63.89 9.44Q63.64 10.02 63.64 10.74L63.64 10.74L63.64 13.85L63.64 13.85Q63.64 14.42 63.85 14.64L63.85 14.64L63.85 14.64Q64.05 14.85 64.57 14.85L64.57 14.85L64.57 15.15L64.57 15.15Q63.39 15.09 63.00 15.09L63.00 15.09L63.00 15.09Q62.61 15.09 61.32 15.15L61.32 15.15L61.32 14.85L61.32 14.85Q61.91 14.85 62.15 14.64L62.15 14.64L62.15 14.64Q62.38 14.42 62.38 13.85L62.38 13.85L62.38 9.46L62.38 9.46Q62.38 8.82 62.15 8.53L62.15 8.53L62.15 8.53Q61.91 8.23 61.32 8.23L61.32 8.23L61.32 7.94L61.32 7.94Q61.77 7.98 62.19 7.98L62.19 7.98L62.19 7.98Q63.07 7.98 63.64 7.78L63.64 7.78L63.64 9.44L63.64 9.44Q63.99 8.54 64.62 8.14L64.62 8.14L64.62 8.14Q65.24 7.74 66.02 7.74L66.02 7.74ZM73.18 7.74L73.18 7.74Q74.12 7.74 74.80 8.19L74.80 8.19L74.80 8.19Q75.46 8.62 75.46 9.27L75.46 9.27L75.46 9.27Q75.46 9.63 75.25 9.84L75.25 9.84L75.25 9.84Q75.04 10.05 74.72 10.05L74.72 10.05L74.72 10.05Q74.40 10.05 74.17 9.86L74.17 9.86L74.17 9.86Q73.95 9.67 73.95 9.35L73.95 9.35L73.95 9.35Q73.95 9.06 74.12 8.86L74.12 8.86L74.12 8.86Q74.28 8.65 74.54 8.58L74.54 8.58L74.54 8.58Q74.40 8.33 74.04 8.16L74.04 8.16L74.04 8.16Q73.68 7.99 73.28 7.99L73.28 7.99L73.28 7.99Q72.76 7.99 72.31 8.32L72.31 8.32L72.31 8.32Q71.86 8.65 71.57 9.41L71.57 9.41L71.57 9.41Q71.27 10.18 71.27 11.42L71.27 11.42L71.27 11.42Q71.27 13.16 71.83 13.95L71.83 13.95L71.83 13.95Q72.39 14.74 73.29 14.74L73.29 14.74L73.29 14.74Q73.89 14.74 74.43 14.39L74.43 14.39L74.43 14.39Q74.97 14.04 75.32 13.30L75.32 13.30L75.59 13.40L75.59 13.40Q75.35 14.20 74.70 14.77L74.70 14.77L74.70 14.77Q74.05 15.34 73.01 15.34L73.01 15.34L73.01 15.34Q72.14 15.34 71.44 14.90L71.44 14.90L71.44 14.90Q70.73 14.45 70.32 13.60L70.32 13.60L70.32 13.60Q69.92 12.75 69.92 11.63L69.92 11.63L69.92 11.63Q69.92 10.50 70.33 9.62L70.33 9.62L70.33 9.62Q70.74 8.74 71.48 8.24L71.48 8.24L71.48 8.24Q72.23 7.74 73.18 7.74L73.18 7.74ZM82.28 13.36L82.56 13.47L82.56 13.47Q82.31 14.24 81.61 14.79L81.61 14.79L81.61 14.79Q80.92 15.34 79.94 15.34L79.94 15.34L79.94 15.34Q78.95 15.34 78.22 14.89L78.22 14.89L78.22 14.89Q77.49 14.43 77.11 13.62L77.11 13.62L77.11 13.62Q76.72 12.80 76.72 11.72L76.72 11.72L76.72 11.72Q76.72 10.50 77.11 9.60L77.11 9.60L77.11 9.60Q77.50 8.71 78.22 8.22L78.22 8.22L78.22 8.22Q78.93 7.74 79.88 7.74L79.88 7.74L79.88 7.74Q81.14 7.74 81.82 8.50L81.82 8.50L81.82 8.50Q82.50 9.27 82.50 10.82L82.50 10.82L78.12 10.82L78.12 10.82Q78.08 11.21 78.08 11.72L78.08 11.72L78.08 11.72Q78.08 12.64 78.38 13.33L78.38 13.33L78.38 13.33Q78.68 14.01 79.18 14.38L79.18 14.38L79.18 14.38Q79.67 14.76 80.22 14.76L80.22 14.76L80.22 14.76Q80.89 14.76 81.41 14.43L81.41 14.43L81.41 14.43Q81.93 14.11 82.28 13.36L82.28 13.36ZM79.83 8.01L79.83 8.01Q79.17 8.01 78.69 8.65L78.69 8.65L78.69 8.65Q78.22 9.30 78.11 10.56L78.11 10.56L81.16 10.56L81.16 10.56Q81.19 9.46 80.84 8.74L80.84 8.74L80.84 8.74Q80.50 8.01 79.83 8.01L79.83 8.01Z"></path></g><!----><!----></svg>